Coordinates
version=1
nRows=8
nColumns=46
inDegrees=yes

Units are S.I. units (second, meters, Newtons, ...)
Angles are in degrees.

endheader
time	pelvis_tilt	pelvis_list	pelvis_rotation	pelvis_tx	pelvis_ty	pelvis_tz	bb_angle	bb_tx	bb_ty	bb_tz	hip_flexion_r	hip_adduction_r	hip_rotation_r	knee_angle_r	knee_angle_r_beta	ankle_angle_r	subtalar_angle_r	mtp_angle_r	crank_angle_r	hip_flexion_l	hip_adduction_l	hip_rotation_l	knee_angle_l	knee_angle_l_beta	ankle_angle_l	subtalar_angle_l	mtp_angle_l	crank_angle_l	lumbar_extension	lumbar_bending	lumbar_rotation	arm_flex_r	arm_add_r	arm_rot_r	elbow_flex_r	pro_sup_r	wrist_flex_r	wrist_dev_r	arm_flex_l	arm_add_l	arm_rot_l	elbow_flex_l	pro_sup_l	wrist_flex_l	wrist_dev_l
      7.50500000	     -9.60783094	     -4.59301495	     -8.19348988	      0.10574394	      1.16572817	     -0.24649529	      0.00000000	      0.50000000	      0.00000000	      0.25000000	     91.17395455	     -3.44951861	     -1.03119948	    107.91982405	      1.88355626	      3.79038387	      3.38311734	      0.00000000	      0.00000000	     44.91199597	    -19.08266260	    -13.19258237	     52.27107372	      0.91230234	    -22.10976781	      3.96460701	      0.00000000	      0.00000000	    -62.80861541	      5.11933548	      7.11219970	     89.77609497	      0.90304050	     26.56446715	     41.00407445	     23.42899917	      0.00000000	      0.00000000	     89.71280291	     -8.65548402	     31.08754394	     29.22960743	     21.07832081	      0.00000000	      0.00000000
      7.51000000	     -9.64878147	     -4.45822234	     -8.40823245	      0.10548092	      1.16617908	     -0.24601168	      0.00000000	      0.50000000	      0.00000000	      0.25000000	     90.57955382	     -3.11047244	     -1.05917495	    106.47652650	      1.85836596	      5.27157406	      3.68854013	      0.00000000	      0.00000000	     45.47595315	    -19.39386947	    -13.22100295	     53.85037513	      0.93986635	    -23.17973034	      3.30278762	      0.00000000	      0.00000000	    -62.84913758	      5.00227105	      7.01993279	     89.77698010	      1.06199726	     26.57460383	     41.27658045	     23.20181792	      0.00000000	      0.00000000	     89.70989474	     -8.90192981	     31.05018448	     29.29963996	     20.88347794	      0.00000000	      0.00000000
      7.51500000	     -9.69720210	     -4.31403695	     -8.50692139	      0.10516101	      1.16647575	     -0.24563261	      0.00000000	      0.50000000	      0.00000000	      0.25000000	     89.85106247	     -2.90579771	     -1.05903612	    104.89734870	      1.83080411	      6.83895904	      4.30068729	      0.00000000	      0.00000000	     46.14313290	    -19.57944527	    -13.10798542	     55.47773675	      0.96826917	    -24.26757926	      2.43830544	      0.00000000	      0.00000000	    -62.84258461	      4.94515928	      6.86328941	     89.77923372	      1.21905236	     26.62593419	     41.41055701	     23.05222340	      0.00000000	      0.00000000	     89.70702869	     -9.08551567	     31.00691725	     29.32141538	     20.81465613	      0.00000000	      0.00000000
      7.52000000	     -9.70540060	     -4.12646118	     -8.58564356	      0.10485498	      1.16674687	     -0.24509103	      0.00000000	      0.50000000	      0.00000000	      0.25000000	     88.94708458	     -2.72471316	     -1.05066967	    103.18600375	      1.80093551	      8.45633480	      4.82376817	      0.00000000	      0.00000000	     46.79734161	    -19.72655419	    -12.99430621	     57.13963553	      0.99727477	    -25.25604874	      1.61327458	      0.00000000	      0.00000000	    -62.85384060	      4.82155104	      6.65599192	     89.78002371	      1.36101195	     26.65556807	     41.52490401	     22.92667878	      0.00000000	      0.00000000	     89.70422614	     -9.27156133	     30.93687837	     29.38682290	     20.76952406	      0.00000000	      0.00000000
      7.52500000	     -9.63267619	     -3.78394113	     -8.57005605	      0.10458778	      1.16686881	     -0.24444367	      0.00000000	      0.50000000	      0.00000000	      0.25000000	     87.92498805	     -2.66261201	     -0.91692563	    101.42341941	      1.77017261	     10.04795503	      4.91860179	      0.00000000	      0.00000000	     47.41475438	    -19.70804496	    -12.91250862	     58.88040243	      1.02765689	    -26.00607568	      1.03224377	      0.00000000	      0.00000000	    -62.86478634	      4.59545024	      6.26661951	     89.77880677	      1.38747650	     26.64560743	     41.59103984	     22.86622833	      0.00000000	      0.00000000	     89.70355794	     -9.37066387	     30.89690888	     29.40485177	     20.74514306	      0.00000000	      0.00000000
      7.53000000	     -9.57904992	     -3.64686480	     -8.44626801	      0.10425511	      1.16699089	     -0.24414848	      0.00000000	      0.50000000	      0.00000000	      0.25000000	     86.70291719	     -2.76031026	     -1.04169938	     99.46153402	      1.73593125	     11.64541656	      5.58184214	      0.00000000	      0.00000000	     48.16582455	    -19.67168403	    -12.48576525	     60.64485557	      1.05845240	    -26.91122017	     -0.07932727	      0.00000000	      0.00000000	    -62.90802365	      4.63363412	      5.99473221	     89.78084222	      1.57748931	     26.68636722	     41.61007737	     22.68080808	      0.00000000	      0.00000000	     89.69958696	     -9.55751958	     30.81893685	     29.52091798	     20.69817486	      0.00000000	      0.00000000
      7.53500000	     -9.47840145	     -3.39501100	     -8.36743245	      0.10401548	      1.16694571	     -0.24346668	      0.00000000	      0.50000000	      0.00000000	      0.25000000	     85.39724594	     -2.70394372	     -1.04199104	     97.42088975	      1.70031529	     13.15461400	      5.77050828	      0.00000000	      0.00000000	     48.85661720	    -19.66276393	    -12.24906261	     62.47321258	      1.09036325	    -27.55222805	     -0.79203373	      0.00000000	      0.00000000	    -62.94050194	      4.47288944	      5.66562804	     89.77911517	      1.64382260	     26.69639826	     41.60398611	     22.56913519	      0.00000000	      0.00000000	     89.69803172	     -9.65775791	     30.77560731	     29.60375337	     20.67430114	      0.00000000	      0.00000000
      7.54000000	     -9.34191786	     -3.01190191	     -8.26071321	      0.10392571	      1.16675247	     -0.24262204	      0.00000000	      0.50000000	      0.00000000	      0.25000000	     84.04593723	     -2.78419740	     -1.01506065	     95.33894198	      1.66397844	     14.35728138	      5.68627725	      0.00000000	      0.00000000	     49.49992490	    -19.52970332	    -12.07198893	     64.32011692	      1.12259782	    -27.95734285	     -1.25332462	      0.00000000	      0.00000000	    -62.93421009	      4.14490095	      5.17509704	     89.77398199	      1.58928518	     26.67192700	     41.58230327	     22.51547277	      0.00000000	      0.00000000	     89.70257292	     -9.64070727	     30.77430174	     29.66240552	     20.66873175	      0.00000000	      0.00000000
